<svg width="68" height="46" viewBox="0 0 68 46" fill="none" xmlns="http://www.w3.org/2000/svg">
<g clip-path="url(#clip0_1_456)">
<path d="M66.073 7.86584C65.688 6.53265 64.937 5.31722 63.8947 4.34059C62.8525 3.36396 61.5553 2.66019 60.1325 2.29938C54.9235 0.968262 33.9592 0.968262 33.9592 0.968262C33.9592 0.968262 12.9937 1.00855 7.78477 2.33967C6.36191 2.70051 5.06477 3.40431 4.0225 4.38098C2.98024 5.35766 2.22922 6.57314 1.84425 7.90638C0.268653 16.5785 -0.342547 29.7929 1.88751 38.1181C2.27252 39.4513 3.02356 40.6667 4.06582 41.6434C5.10808 42.62 6.40521 43.3238 7.82803 43.6846C13.037 45.0157 34.0019 45.0157 34.0019 45.0157C34.0019 45.0157 54.9665 45.0157 60.1752 43.6846C61.5981 43.3238 62.8953 42.6201 63.9376 41.6434C64.9799 40.6668 65.731 39.4514 66.116 38.1181C67.7779 29.4337 68.29 16.2277 66.073 7.86608V7.86584Z" fill="#080809" fill-opacity="0.7"/>
<path d="M27.2893 32.4306L44.6811 22.9919L27.2896 13.5532L27.2893 32.4306Z" fill="white"/>
</g>
<defs>
<clipPath id="clip0_1_456">
<rect width="67.1377" height="44.2231" fill="white" transform="translate(0.427734 0.968262)"/>
</clipPath>
</defs>
</svg>
